<?xml version="1.0" encoding="utf-8"?>
<!DOCTYPE svg PUBLIC "-//W3C//DTD SVG 1.1//EN" "http://www.w3.org/Graphics/SVG/1.1/DTD/svg11.dtd">
<svg version="1.1" xmlns="http://www.w3.org/2000/svg" xmlns:xlink="http://www.w3.org/1999/xlink" x="0px" y="0px" width="1024px" height="1024px" viewBox="0 0 1024 1024" enable-background="new 0 0 1024 1024" xml:space="preserve">
<metadata> Free Icon Download -- www.onlinewebfonts.com </metadata>

  <path d="M848 64l-672 0c-61.824 0-112 50.112-112 112l0 672c0 61.888 50.176 112 112 112l672 0c61.888 0 112-50.112 112-112l0-672C960 114.112 909.888 64 848 64zM644.032 533.76l-251.2 250.368c-11.072 10.944-28.992 10.944-40.064 0-11.008-11.008-11.008-28.864 0-39.872l232.704-231.808-232.704-231.808c-11.008-11.008-11.008-28.736 0-39.872 11.072-10.944 28.992-10.944 40.064 0l251.2 250.368c5.888 5.888 8.448 13.632 8 21.312C652.48 520.128 649.92 527.936 644.032 533.76z" />


</svg>